<?xml version="1.0" encoding="UTF-8"?>
<!--Generator: Apple Native CoreSVG 232.5-->
<!DOCTYPE svg
PUBLIC "-//W3C//DTD SVG 1.1//EN"
       "http://www.w3.org/Graphics/SVG/1.1/DTD/svg11.dtd">
<svg version="1.1" xmlns="http://www.w3.org/2000/svg" xmlns:xlink="http://www.w3.org/1999/xlink" width="23.3203" height="22.9785">
 <g>
  <rect height="22.9785" opacity="0" width="23.3203" x="0" y="0"/>
  <path d="M3.79883 22.9785L19.1504 22.9785C21.6797 22.9785 22.959 21.709 22.959 19.2188L22.959 3.78906C22.959 1.29883 21.6797 0.0292969 19.1504 0.0292969L3.79883 0.0292969C1.2793 0.0292969 0 1.28906 0 3.78906L0 19.2188C0 21.7188 1.2793 22.9785 3.79883 22.9785ZM3.83789 21.25C2.4707 21.25 1.72852 20.5273 1.72852 19.1309L1.72852 3.87695C1.72852 2.48047 2.4707 1.75781 3.83789 1.75781L19.1211 1.75781C20.459 1.75781 21.2305 2.48047 21.2305 3.87695L21.2305 19.1309C21.2305 20.5273 20.459 21.25 19.1211 21.25Z" fill="#007aff"/>
  <path d="M5.92773 12.3926C5.92773 12.6855 6.15234 12.8906 6.45508 12.8906L10.8008 12.8906L8.47656 19.1602C8.18359 19.9121 8.97461 20.3125 9.47266 19.7168L16.5039 10.8887C16.6309 10.7324 16.6992 10.5664 16.6992 10.4199C16.6992 10.127 16.4648 9.93164 16.1719 9.93164L11.8262 9.93164L14.1504 3.66211C14.4336 2.91016 13.6426 2.5 13.1543 3.10547L6.12305 11.9238C5.99609 12.0898 5.92773 12.2559 5.92773 12.3926Z" fill="#007aff"/>
 </g>
</svg>
